<?xml version="1.0" encoding="utf-8"?>
<!-- Generator: Adobe Illustrator 27.8.1, SVG Export Plug-In . SVG Version: 6.00 Build 0)  -->
<svg version="1.1" id="Layer_1" xmlns="http://www.w3.org/2000/svg" xmlns:xlink="http://www.w3.org/1999/xlink" x="0px" y="0px"
	 viewBox="0 0 345 75" style="enable-background:new 0 0 345 75;" xml:space="preserve">
<style type="text/css">
	.st0{fill:#FCEA2B;}
	.st1{fill:#F1B31C;}
	.st2{fill:#EA5A47;}
	.st3{fill:#FFFFFF;}
</style>
<g>
	<path d="M3.74,5.43h29.64v5.06H8.91V26.7h24.26v5.06H8.91v20.32h24.26v5.06H3.74V5.43z"/>
	<path d="M41.46,18.89h4.92v6.61c1.71-2.44,3.47-4.22,5.28-5.34c2.49-1.5,5.1-2.25,7.85-2.25c1.85,0,3.61,0.36,5.28,1.09
		c1.67,0.73,3.03,1.69,4.08,2.9c1.06,1.21,1.97,2.94,2.75,5.19c1.64-3,3.68-5.28,6.14-6.84c2.46-1.56,5.1-2.34,7.93-2.34
		c2.64,0,4.97,0.67,7,2c2.02,1.34,3.52,3.2,4.51,5.59c0.98,2.39,1.47,5.98,1.47,10.76v20.88h-5.03V36.26c0-4.1-0.29-6.92-0.88-8.46
		c-0.58-1.53-1.58-2.77-3-3.71c-1.41-0.94-3.1-1.41-5.06-1.41c-2.38,0-4.56,0.7-6.54,2.11c-1.97,1.41-3.42,3.28-4.33,5.62
		c-0.91,2.34-1.37,6.26-1.37,11.74v14.98h-4.92V37.56c0-4.62-0.29-7.75-0.86-9.4c-0.57-1.65-1.58-2.98-3.01-3.97
		c-1.43-1-3.13-1.49-5.1-1.49c-2.27,0-4.4,0.69-6.38,2.06c-1.98,1.37-3.45,3.22-4.39,5.54s-1.42,5.87-1.42,10.65v16.21h-4.92V18.89z
		"/>
	<path d="M172.51,3.14c1.12,0,2.08,0.4,2.87,1.2c0.79,0.8,1.19,1.76,1.19,2.88c0,1.1-0.4,2.05-1.19,2.85
		c-0.79,0.8-1.75,1.2-2.87,1.2c-1.1,0-2.04-0.4-2.84-1.2c-0.79-0.8-1.19-1.75-1.19-2.85c0-1.12,0.4-2.09,1.19-2.88
		C170.46,3.54,171.41,3.14,172.51,3.14z M170.06,18.89h4.92v38.25h-4.92V18.89z"/>
	<path d="M157.99,3.14c1.12,0,2.08,0.4,2.87,1.2c0.79,0.8,1.19,1.76,1.19,2.88c0,1.1-0.4,2.05-1.19,2.85
		c-0.79,0.8-1.75,1.2-2.87,1.2c-1.1,0-2.04-0.4-2.84-1.2c-0.79-0.8-1.19-1.75-1.19-2.85c0-1.12,0.4-2.09,1.19-2.88
		C155.94,3.54,156.89,3.14,157.99,3.14z M155.54,18.89h4.92v53.23h-4.92V18.89z"/>
	<path d="M185.95,5.43h5.17v21.69h26.33V5.43h5.17v51.71h-5.17V32.18h-26.33v24.96h-5.17V5.43z"/>
	<path d="M266.6,44.45l4.15,2.18c-1.36,2.67-2.93,4.83-4.72,6.47c-1.78,1.64-3.79,2.89-6.02,3.74c-2.23,0.86-4.75,1.28-7.57,1.28
		c-6.24,0-11.12-2.04-14.64-6.13c-3.52-4.09-5.28-8.71-5.28-13.87c0-4.85,1.49-9.18,4.47-12.97c3.78-4.83,8.83-7.24,15.17-7.24
		c6.52,0,11.73,2.47,15.62,7.42c2.77,3.49,4.18,7.85,4.22,13.08H237.6c0.09,4.44,1.51,8.08,4.26,10.93
		c2.75,2.84,6.14,4.26,10.17,4.26c1.95,0,3.84-0.34,5.68-1.02c1.84-0.68,3.41-1.58,4.7-2.7C263.7,48.76,265.1,46.95,266.6,44.45z
		 M266.6,34.15c-0.66-2.62-1.61-4.72-2.87-6.29c-1.26-1.57-2.92-2.84-4.98-3.8c-2.07-0.96-4.24-1.44-6.51-1.44
		c-3.75,0-6.98,1.21-9.68,3.62c-1.97,1.76-3.46,4.39-4.47,7.91H266.6z"/>
	<path d="M279.33,18.89h5.03v5.59c1.5-2.2,3.08-3.85,4.75-4.94c1.66-1.09,3.4-1.63,5.2-1.63c1.36,0,2.81,0.43,4.36,1.3l-2.57,4.15
		c-1.03-0.44-1.9-0.67-2.6-0.67c-1.64,0-3.22,0.67-4.75,2.02c-1.52,1.35-2.68,3.44-3.48,6.28c-0.61,2.18-0.91,6.59-0.91,13.22v12.94
		h-5.03V18.89z"/>
	<path d="M320.95,17.91c5.89,0,10.78,2.13,14.65,6.4c3.52,3.89,5.28,8.5,5.28,13.82c0,5.34-1.86,10.01-5.58,14.01
		c-3.72,4-8.51,5.99-14.35,5.99c-5.87,0-10.67-2-14.39-5.99c-3.72-4-5.58-8.67-5.58-14.01c0-5.3,1.76-9.89,5.28-13.78
		C310.14,20.05,315.04,17.91,320.95,17.91z M320.94,22.72c-4.09,0-7.61,1.51-10.55,4.54c-2.94,3.02-4.41,6.68-4.41,10.97
		c0,2.77,0.67,5.34,2.01,7.73c1.34,2.39,3.15,4.24,5.43,5.54c2.28,1.3,4.79,1.95,7.51,1.95c2.73,0,5.23-0.65,7.51-1.95
		c2.28-1.3,4.09-3.15,5.43-5.54c1.34-2.39,2.01-4.97,2.01-7.73c0-4.29-1.48-7.95-4.43-10.97C328.51,24.23,325,22.72,320.94,22.72z"
		/>
</g>
<g>
	<g id="color">
		<circle class="st0" cx="127.42" cy="37.69" r="18.66"/>
		<polygon class="st1" points="119.32,26.78 125.22,25.89 122.34,31.12 125.01,36.46 119.14,35.33 114.89,39.51 114.15,33.59 
			108.86,30.84 114.26,28.31 115.24,22.42 		"/>
		<polygon class="st1" points="135.46,26.78 129.56,25.89 132.45,31.12 129.78,36.46 135.64,35.33 139.89,39.51 140.63,33.59 
			145.92,30.84 140.52,28.31 139.54,22.42 		"/>
		<path class="st2" d="M137.57,45.35c-1.32,3.16-4.69,5.34-10.13,5.34c-5.48,0-8.89-2.24-10.2-5.44
			C118.75,45.59,128.32,47.59,137.57,45.35z"/>
		<path class="st3" d="M138.21,42.03c0,1.18-0.21,2.3-0.64,3.32c-9.25,2.25-18.82,0.24-20.32-0.1c-0.41-1-0.61-2.08-0.61-3.22h0.08
			c0,0,10.95,2.65,21.35,0.05L138.21,42.03z"/>
	</g>
	<g id="line">
		<path d="M138.95,42.03c0-0.24-0.12-0.46-0.31-0.6c-0.19-0.14-0.44-0.17-0.67-0.1l-0.08,0.03c-10.1,2.52-20.89-0.03-21-0.05
			c-0.06-0.01-0.2-0.02-0.25-0.02c-0.41,0-0.74,0.33-0.74,0.74c0,1.24,0.23,2.41,0.67,3.5c0,0,0,0,0,0c0,0,0,0,0,0
			c1.53,3.75,5.5,5.9,10.88,5.9c5.32,0,9.26-2.11,10.81-5.8c0,0,0,0,0,0C138.72,44.52,138.95,43.31,138.95,42.03z M137.42,42.99
			c-0.07,0.6-0.2,1.18-0.4,1.72c-0.27,0.06-0.55,0.12-0.82,0.18c-0.21,0.04-0.41,0.09-0.62,0.13c-0.37,0.07-0.74,0.13-1.11,0.18
			c-0.17,0.03-0.34,0.06-0.51,0.08c-0.52,0.07-1.03,0.13-1.54,0.18c-0.02,0-0.04,0.01-0.07,0.01c-0.53,0.05-1.06,0.09-1.58,0.12
			c-0.18,0.01-0.35,0.01-0.52,0.02c-0.34,0.02-0.69,0.03-1.02,0.04c-0.21,0.01-0.41,0-0.62,0.01c-0.29,0-0.59,0.01-0.88,0
			c-0.22,0-0.43-0.01-0.64-0.01c-0.27-0.01-0.54-0.01-0.8-0.02c-0.21-0.01-0.42-0.02-0.63-0.03c-0.25-0.01-0.5-0.02-0.74-0.04
			c-0.21-0.01-0.41-0.03-0.61-0.04c-0.23-0.02-0.46-0.04-0.68-0.05c-0.2-0.02-0.39-0.04-0.58-0.05c-0.21-0.02-0.42-0.04-0.63-0.07
			c-0.18-0.02-0.36-0.04-0.54-0.06c-0.2-0.02-0.39-0.05-0.58-0.07c-0.16-0.02-0.33-0.04-0.48-0.07c-0.18-0.03-0.35-0.05-0.52-0.08
			c-0.14-0.02-0.29-0.04-0.43-0.07c-0.16-0.03-0.31-0.05-0.46-0.08c-0.12-0.02-0.25-0.04-0.36-0.06c-0.15-0.03-0.29-0.05-0.43-0.08
			c-0.09-0.02-0.18-0.03-0.26-0.05c-0.14-0.03-0.27-0.05-0.39-0.08c-0.05-0.01-0.12-0.02-0.16-0.03c-0.01,0-0.01,0-0.01,0
			c-0.19-0.53-0.31-1.1-0.37-1.68C120.16,43.49,128.78,44.91,137.42,42.99z M127.45,49.95c-4.05,0-7.17-1.32-8.8-3.66
			c0.06,0.01,0.14,0.02,0.2,0.04c0.1,0.02,0.21,0.04,0.32,0.06c0.09,0.02,0.19,0.03,0.29,0.05c0.13,0.02,0.27,0.04,0.41,0.07
			c0.09,0.01,0.18,0.03,0.28,0.04c0.17,0.03,0.35,0.05,0.54,0.08c0.07,0.01,0.14,0.02,0.22,0.03c0.54,0.07,1.12,0.14,1.74,0.21
			c0.07,0.01,0.13,0.01,0.2,0.02c0.25,0.02,0.5,0.05,0.75,0.07c0.09,0.01,0.18,0.02,0.28,0.02c0.24,0.02,0.49,0.04,0.75,0.06
			c0.1,0.01,0.19,0.01,0.29,0.02c0.28,0.02,0.56,0.03,0.85,0.05c0.07,0,0.14,0.01,0.21,0.01c0.69,0.03,1.4,0.05,2.14,0.05
			c0.03,0,0.05,0,0.08,0c0.65,0,1.33-0.02,2.01-0.05c0.12-0.01,0.24-0.01,0.36-0.02c0.68-0.03,1.36-0.09,2.06-0.16
			c0.13-0.01,0.26-0.03,0.38-0.04c0.7-0.08,1.41-0.17,2.12-0.29c0.11-0.02,0.23-0.04,0.34-0.06c0.23-0.04,0.45-0.07,0.68-0.12
			C134.5,48.71,131.48,49.95,127.45,49.95z"/>
		<path d="M114.95,40.25c-0.08,0-0.16-0.01-0.24-0.04c-0.27-0.09-0.46-0.33-0.49-0.61l-0.69-5.54l-4.95-2.57
			c-0.25-0.13-0.4-0.39-0.4-0.67s0.17-0.54,0.43-0.65l5.05-2.37l0.92-5.5c0.05-0.28,0.25-0.5,0.52-0.59c0.27-0.08,0.56,0,0.75,0.2
			l3.81,4.08l5.52-0.83c0.28-0.04,0.56,0.08,0.72,0.31s0.18,0.53,0.04,0.78l-2.7,4.88l2.49,4.99c0.13,0.25,0.1,0.55-0.07,0.78
			c-0.17,0.22-0.45,0.33-0.73,0.28l-5.48-1.06l-3.98,3.92C115.32,40.18,115.14,40.25,114.95,40.25z M110.58,30.87l3.97,2.06
			c0.22,0.11,0.36,0.32,0.39,0.56l0.55,4.44l3.19-3.14c0.17-0.17,0.42-0.25,0.66-0.2l4.39,0.85l-2-4c-0.11-0.22-0.1-0.48,0.01-0.69
			l2.16-3.91l-4.42,0.67c-0.24,0.03-0.48-0.05-0.65-0.23l-3.05-3.27l-0.73,4.41c-0.04,0.24-0.2,0.45-0.42,0.55L110.58,30.87z"/>
		<path d="M139.89,40.25c-0.19,0-0.38-0.07-0.52-0.21l-3.98-3.92l-5.48,1.06c-0.28,0.06-0.56-0.06-0.73-0.28
			c-0.17-0.22-0.2-0.53-0.07-0.78l2.49-4.99l-2.7-4.88c-0.14-0.25-0.12-0.55,0.04-0.78c0.16-0.23,0.44-0.35,0.72-0.31l5.52,0.83
			l3.81-4.08c0.19-0.21,0.48-0.28,0.75-0.2c0.27,0.08,0.47,0.31,0.52,0.59l0.92,5.5l5.05,2.37c0.25,0.12,0.42,0.37,0.43,0.65
			s-0.15,0.54-0.4,0.67l-4.95,2.57l-0.69,5.54c-0.03,0.28-0.23,0.51-0.49,0.61C140.06,40.24,139.97,40.25,139.89,40.25z
			 M135.64,34.59c0.19,0,0.38,0.08,0.52,0.21l3.19,3.14l0.55-4.44c0.03-0.24,0.18-0.45,0.39-0.56l3.97-2.06l-4.05-1.9
			c-0.22-0.1-0.38-0.31-0.42-0.55l-0.73-4.41L136,27.29c-0.17,0.18-0.41,0.26-0.65,0.23l-4.42-0.67l2.16,3.91
			c0.12,0.21,0.12,0.47,0.01,0.69l-2,4l4.39-0.85C135.55,34.59,135.59,34.59,135.64,34.59z"/>
	</g>
	<path d="M135.4,22.32c-0.22,0-0.43-0.05-0.64-0.15c-2.3-1.09-4.77-1.64-7.34-1.64c-2.57,0-5.03,0.55-7.33,1.64
		c-0.75,0.35-1.64,0.04-2-0.71c-0.35-0.75-0.04-1.64,0.71-2c2.7-1.28,5.6-1.93,8.62-1.93s5.92,0.65,8.62,1.93
		c0.75,0.35,1.07,1.25,0.71,2C136.5,22.01,135.96,22.32,135.4,22.32z"/>
	<path d="M127.42,57.85c-11.11,0-20.16-9.04-20.16-20.16c0-0.88,0.06-1.76,0.17-2.63c0.11-0.82,0.86-1.4,1.68-1.29
		c0.82,0.11,1.4,0.86,1.29,1.68c-0.1,0.74-0.15,1.49-0.15,2.24c0,9.46,7.7,17.16,17.16,17.16s17.16-7.7,17.16-17.16
		c0-0.74-0.05-1.49-0.14-2.22c-0.11-0.82,0.47-1.57,1.3-1.68c0.83-0.1,1.57,0.47,1.68,1.3c0.11,0.86,0.17,1.73,0.17,2.6
		C147.58,48.81,138.54,57.85,127.42,57.85z"/>
</g>
</svg>
